<?xml version="1.0" encoding="UTF-8"?><svg id="Layer_2" xmlns="http://www.w3.org/2000/svg" viewBox="0 0 306.66 247.2"><defs><style>.cls-1{fill:#f9f8f4;stroke-width:0px;}</style></defs><g id="Layer_1-2"><path class="cls-1" d="m45.27,182.32c-.99-32.74,49.61-69.12,76.4-74.75,0,0-25.8-11.91-25.8-39.69,0-14.77,9.74-30.38,24.03-43.62C69.94,45.24,24.59,78.01,8.17,115.52c-17.06,38.97-10.84,100.69,52.09,123.87,10.92,4.03,22.06,6.41,32.37,7.81-25.71-11.39-46.4-35.82-47.35-64.88Z"/><path class="cls-1" d="m263.63,5.24C249.58.4,231.78-.93,212.14.6c2.14,1.64,4.12,3.3,5.76,4.77,8.6,2.32,23.15,14.88,23.15,23.81s-5.62,26.79-17.2,45.97c-11.24,18.85-21.5,28.44-29.1,28.44-4.96,0-18.85-9.26-18.85-17.2s20.17-39.69,26.46-39.69c2.98,0,8.93,5.95,8.93,5.95,0,0,10.91-15.88,10.91-23.48,0-4.96-5.95-11.91-13.23-11.91-29.77,0-73.75,30.43-73.75,55.89,0,20.84,5.95,27.45,18.19,34.73,8.93,5.29,13.89,6.95,13.89,12.57,0,6.95-5.29,8.93-18.19,12.9-27.45,8.27-64.82,34.73-64.82,69.12,0,17.86,11.24,33.4,31.75,33.4,62.18,0,97.57-58.54,97.57-81.36v-2.32c-35.72,23.15-38.7,36.05-45.31,36.05-3.64,0-7.61-2.98-7.61-8.27,0-17.2,9.92-31.09,48.29-53.58,33.07-19.51,42.33-29.43,42.33-36.38,0-4.96-1.98-7.28-1.98-9.26,0-2.32,3.64-5.29,6.28-5.29,4.63,0,12.57,10.25,12.57,21.17,0,17.86-12.57,29.1-37.37,44.98.99,2.65,1.32,5.62,1.65,9.92.48,25.17-19.39,67.7-57.43,89.21,62.79-19.56,95.54-68.12,103.48-79.94,34.57-51.42,45.42-134.86-14.88-155.6Z"/></g></svg>