<?xml version="1.0" encoding="UTF-8"?><svg id="Layer_2" xmlns="http://www.w3.org/2000/svg" viewBox="0 0 1832.25 278.84"><defs><style>.cls-1{fill:#f9f8f4;stroke-width:0px;}</style></defs><g id="Layer_1-2"><path class="cls-1" d="m247.75,50.83c0,28.36-35.05,51.37-54.31,59.93,17.93,0,44.41,24.35,44.41,57.79,0,54.58-89.63,104.61-141.8,104.61-19.53,0-40.13-23.54-40.13-37.46,0-24.61,68.49-65.55,99.26-65.55,5.89,0,13.65,6.69,13.65,10.17s-2.14,3.75-8.83,4.82c-25.68,4.01-85.35,34.25-85.35,50.83,0,4.82,3.75,7.76,9.63,7.76,51.64,0,126.28-44.15,126.28-92.3,0-16.32-13.91-27.82-28.36-27.82s-32.64,9.1-38.26,9.1-17.12-12.04-17.12-16.59c0-6.42,14.45-13.11,38.53-23.54,28.63-12.31,54.58-33.71,54.58-52.71,0-13.38-12.84-23.01-36.92-23.01-70.36,0-107.82,32.11-127.62,49.5,0,0,4.01,7.22,4.01,10.7,0,4.01-13.11,8.83-27.02,21.67-7.22,6.69-14.98,13.91-18.46,13.91-4.28,0-13.91-10.17-13.91-17.39C0,69.83,89.63,0,169.36,0c41.47,0,78.39,24.61,78.39,50.83Zm-93.91-2.94c0,6.42-19.26,15.52-48.16,69.03-28.63,53.24-31.57,68.76-31.84,72.77s-1.87,5.08-4.55,5.08c-6.42,0-19.53-6.69-19.53-18.46s6.96-33.18,31.3-77.05c23.81-42.54,33.98-52.44,39.6-59.66,1.87-2.41,3.48-4.28,5.62-4.28,6.69,0,27.56,6.15,27.56,12.57Z"/><path class="cls-1" d="m255.77,171.5c-2.94,0-7.22-5.89-7.22-9.1,0-2.68,2.94-6.15,4.55-8.83,19-30.23,27.56-44.41,27.56-48.43,0-1.61-7.22-9.9-7.22-17.93s14.18-38.53,20.87-38.53,22.74,7.22,22.74,14.98-14.98,34.78-14.98,43.61,25.42,12.31,25.42,34.51c0,9.63-15.52,32.64-15.52,44.95,0,4.01,2.41,6.42,4.82,6.42,8.56,0,28.09-24.35,39.06-39.6,4.55-6.42,5.89-8.56,7.22-8.56,2.14,0,6.42,6.42,6.42,10.43s-1.07,7.22-6.69,14.45c-10.17,13.38-28.36,37.46-46.29,37.46-12.04,0-29.97-12.57-29.97-31.3s14.98-39.6,14.98-46.82-9.1-12.04-9.1-12.04c0,0-7.49,16.59-27.56,45.75-3.48,5.08-6.15,8.56-9.1,8.56Z"/><path class="cls-1" d="m353.69,164.27c0-27.82,33.18-70.36,52.44-70.36,12.84,0,32.91,11.77,32.91,23.28,0,8.83-8.03,26.49-22.21,40.13-11.24,10.97-34.25,11.5-34.25,11.5,0,0-.54,2.94-.54,6.15,0,10.7,8.29,18.19,17.66,18.19,18.19,0,39.33-24.35,50.3-39.6,4.55-6.42,5.89-8.56,7.22-8.56,2.14,0,6.42,6.42,6.42,10.43s-1.07,7.22-6.69,14.45c-10.17,13.38-32.37,38.53-60.47,38.53-19.26,0-42.81-16.59-42.81-44.15Zm67.15-44.68c0-1.61-1.34-2.68-3.48-2.68-6.15,0-32.11,32.37-32.11,39.33,10.43,0,35.58-28.09,35.58-36.65Z"/><path class="cls-1" d="m504.31,106.48c0,5.89-10.43,14.71-23.81,44.68-12.31,27.56-12.31,32.37-12.31,36.12,0,2.94,2.14,5.08,4.82,5.08,5.89,0,21.14-17.39,39.06-44.95,17.93-27.56,25.95-51.64,31.57-51.64s21.67,6.15,21.67,12.04-22.47,31.57-22.47,67.15c0,12.31,4.28,17.12,7.76,17.12,3.75,0,7.49-2.14,11.5-6.15-1.34-1.07-1.87-2.41-1.87-3.48,0-6.69,6.15-13.38,11.77-13.38.53,0,1.07.27,1.6.54,11.24-20.33,19.8-49.76,19.8-66.89,0-11.77,1.61-15.79,4.01-15.79,7.76,0,17.93,13.91,17.93,33.44s-10.17,42.01-23.54,59.4c21.14,0,31.57-10.97,42.54-26.22,4.55-6.42,5.89-8.56,7.22-8.56,2.14,0,6.42,6.42,6.42,10.43s-1.34,6.69-6.96,14.45c-9.9,13.65-24.88,25.15-52.44,25.15-3.48,0-6.69-.27-9.9-1.07-9.1,8.03-18.73,13.11-27.29,13.11-24.61,0-30.5-19.53-34.78-33.44,0,0-21.14,35.58-43.61,35.58-12.84,0-27.29-12.31-27.29-34.78s25.68-81.87,38.26-81.87c5.89,0,20.33,8.03,20.33,13.91Z"/><path class="cls-1" d="m615.87,179.26c0-6.96,5.89-14.98,12.04-16.86,12.57-17.93,29.16-38.53,39.6-56.45,5.08-19.53,14.45-38.53,20.87-38.53,10.43,0,21.67,8.29,21.67,16.86,0,6.42-11.5,20.07-20.6,31.84,0,21.4,16.05,24.61,16.05,55.11,0,16.59-15.25,36.92-41.74,36.92s-47.89-15.52-47.89-28.9Zm42.27,11.77c9.9,0,16.86-12.84,16.86-29.16s-1.87-38.53-1.87-38.53c-9.36,14.71-20.6,31.57-33.71,49.5,0,5.89,9.63,18.19,18.73,18.19Z"/><path class="cls-1" d="m1358.98,56.5c0,28.36-35.05,51.37-54.31,59.93,17.93,0,44.41,24.35,44.41,57.79,0,54.58-89.63,104.61-141.8,104.61-19.53,0-40.13-23.54-40.13-37.46,0-24.61,68.49-65.55,99.26-65.55,5.89,0,13.64,6.69,13.64,10.17s-2.14,3.75-8.83,4.82c-25.68,4.01-85.35,34.25-85.35,50.83,0,4.82,3.75,7.76,9.63,7.76,51.64,0,126.28-44.15,126.28-92.3,0-16.32-13.91-27.82-28.36-27.82s-32.64,9.1-38.26,9.1-17.12-12.04-17.12-16.59c0-6.42,14.45-13.11,38.53-23.54,28.63-12.31,54.58-33.71,54.58-52.71,0-13.38-12.84-23.01-36.92-23.01-70.37,0-107.82,32.11-127.62,49.5,0,0,4.01,7.22,4.01,10.7,0,4.01-13.11,8.83-27.02,21.67-7.22,6.69-14.98,13.91-18.46,13.91-4.28,0-13.91-10.17-13.91-17.39,0-25.42,89.63-95.25,169.36-95.25,41.47,0,78.39,24.61,78.39,50.83Zm-93.91-2.94c0,6.42-19.26,15.52-48.16,69.03-28.63,53.24-31.57,68.76-31.84,72.77s-1.87,5.08-4.55,5.08c-6.42,0-19.53-6.69-19.53-18.46s6.96-33.18,31.3-77.05c23.81-42.54,33.98-52.44,39.6-59.66,1.87-2.41,3.48-4.28,5.62-4.28,6.69,0,27.56,6.15,27.56,12.57Z"/><path class="cls-1" d="m1447,111.89c1.87,0,13.11,2.94,13.11,21.14,0,13.65-8.29,36.39-21.4,54.85,17.66-2.41,28.09-14.72,37.99-28.63,4.55-6.42,5.89-8.56,7.22-8.56,2.14,0,6.42,6.42,6.42,10.43s-1.34,6.69-6.96,14.45c-9.9,13.65-28.9,29.16-56.45,29.16h-3.48c-8.56,6.96-18.19,11.77-28.09,11.77-18.19,0-35.58-17.66-35.58-38.26,0-27.29,34.25-81.6,57.25-81.6,8.29,0,26.22,8.83,29.96,15.25Zm-58.06,76.25c0,7.76,4.28,10.97,8.03,10.97,2.68,0,5.62-1.07,8.56-3.21-.54-1.07-.8-1.87-.8-2.94,0-4.82,6.42-11.5,10.7-11.5.8,0,1.87.27,2.94.8,11.77-16.86,21.67-42,21.67-53.24,0-5.89-2.68-9.36-7.22-9.36-15.52,0-43.88,44.15-43.88,68.49Z"/><path class="cls-1" d="m1541.71,188.94c0-20.87,32.37-62.34,32.37-69.56,0-2.14-2.14-3.48-3.75-3.48-3.21,0-14.98,9.9-27.83,25.42-8.03,9.63-16.59,22.47-24.88,33.98-21.67,30.23-19.26,38.53-24.08,38.53-8.03,0-26.22-7.76-26.22-20.6,0-23.01,31.3-84.81,32.91-93.64.27-1.87,1.34-2.14,4.55-2.14,9.63,0,22.21,6.69,22.21,14.18s-25.68,50.83-25.68,61.54c0,0,17.12-23.28,34.25-42.81,17.12-19.53,31.84-31.84,40.93-31.84,13.91,0,27.29,9.36,27.29,18.19,0,12.31-32.37,57.79-32.37,81.07,0,4.28,2.41,6.15,4.82,6.15,7.76,0,28.9-29.43,39.87-44.68,4.55-6.42,5.89-8.56,7.22-8.56,2.14,0,6.42,6.42,6.42,10.43s-1.07,7.22-6.69,14.45c-10.17,13.38-30.77,40.93-47.36,40.93s-33.98-11.24-33.98-27.56Z"/><path class="cls-1" d="m1756.55,159.24c4.55-6.42,5.89-8.56,7.22-8.56,2.14,0,6.42,6.42,6.42,10.43s-1.07,7.22-6.69,14.45c-10.17,13.38-28.09,40.4-46.02,40.4-8.83,0-12.84-4.01-12.84-4.01-10.43,0-23.28-13.38-23.28-34.25-6.69,14.72-23.54,36.39-39.6,36.39s-31.3-7.76-31.3-33.44c0-31.57,41.47-85.08,59.66-85.08,19.8,0,32.37,8.83,32.91,21.94,1.34-3.48,31.3-70.63,38.79-70.63,9.9,0,20.07,7.76,20.07,12.31s-3.75,6.96-10.43,19.53c-7.76,14.45-40.13,82.4-40.13,109.43,0,8.29,2.41,10.7,6.15,10.7,8.56,0,28.09-24.35,39.06-39.6Zm-117.72,32.64c0,2.94.54,5.89,4.01,5.89,10.97,0,30.5-29.16,38.53-45.22,6.15-12.31,11.5-28.63,11.5-33.18s-1.61-6.42-4.28-6.42c-14.18,0-49.76,47.89-49.76,78.93Z"/><path class="cls-1" d="m1738.08,184.93c0-6.96,5.89-14.98,12.04-16.86,12.57-17.93,29.16-38.53,39.6-56.45,5.08-19.53,14.45-38.53,20.87-38.53,10.43,0,21.67,8.29,21.67,16.86,0,6.42-11.5,20.07-20.6,31.84,0,21.4,16.05,24.61,16.05,55.12,0,16.59-15.25,36.92-41.74,36.92s-47.89-15.52-47.89-28.9Zm42.27,11.77c9.9,0,16.86-12.84,16.86-29.16s-1.87-38.53-1.87-38.53c-9.36,14.71-20.6,31.57-33.71,49.5,0,5.89,9.63,18.19,18.73,18.19Z"/><path class="cls-1" d="m817.43,195.04c-.99-32.74,49.61-69.12,76.4-74.75,0,0-25.8-11.91-25.8-39.69,0-14.77,9.74-30.38,24.03-43.62-49.96,20.98-95.31,53.75-111.73,91.25-17.06,38.97-10.84,100.69,52.09,123.87,10.92,4.03,22.06,6.41,32.37,7.81-25.71-11.39-46.4-35.82-47.35-64.88Z"/><path class="cls-1" d="m1035.79,17.96c-14.05-4.83-31.85-6.17-51.49-4.63,2.14,1.64,4.12,3.3,5.76,4.77,8.6,2.32,23.15,14.88,23.15,23.81s-5.62,26.79-17.2,45.97c-11.24,18.85-21.5,28.44-29.1,28.44-4.96,0-18.85-9.26-18.85-17.2s20.17-39.69,26.46-39.69c2.98,0,8.93,5.95,8.93,5.95,0,0,10.91-15.88,10.91-23.48,0-4.96-5.95-11.91-13.23-11.91-29.77,0-73.75,30.43-73.75,55.89,0,20.84,5.95,27.45,18.19,34.73,8.93,5.29,13.89,6.95,13.89,12.57,0,6.95-5.29,8.93-18.19,12.9-27.45,8.27-64.82,34.73-64.82,69.12,0,17.86,11.24,33.4,31.75,33.4,62.18,0,97.57-58.54,97.57-81.36v-2.32c-35.72,23.15-38.7,36.05-45.31,36.05-3.64,0-7.61-2.98-7.61-8.27,0-17.2,9.92-31.09,48.29-53.58,33.07-19.51,42.33-29.43,42.33-36.38,0-4.96-1.98-7.28-1.98-9.26,0-2.32,3.64-5.29,6.28-5.29,4.63,0,12.57,10.25,12.57,21.17,0,17.86-12.57,29.1-37.37,44.98.99,2.65,1.32,5.62,1.65,9.92.48,25.17-19.39,67.7-57.43,89.21,62.79-19.56,95.54-68.12,103.48-79.94,34.57-51.42,45.42-134.86-14.88-155.6Z"/></g></svg>