<?xml version="1.0" encoding="UTF-8"?><svg id="Layer_2" xmlns="http://www.w3.org/2000/svg" viewBox="0 0 367.41 367.42"><defs><style>.cls-1{fill:#fffdea;}.cls-1,.cls-2{stroke-width:0px;}.cls-2{fill:#78aa8c;}</style></defs><g id="Layer_1-2"><path class="cls-2" d="m237.3,268.34c-46.84-9.06-52.96-39.18-96.48-46.57-39.23-6.67-53.38,14.56-86.02,3.33-22.44-7.73-37.6-25.29-47.62-41.42-16.2,48.55-4.99,104.24,33.66,142.89,54.47,54.47,142.78,54.47,197.25,0,16.4-16.4,27.85-35.87,34.38-56.55-10.58.96-22.48.78-35.17-1.67Z"/><path class="cls-1" d="m255.52,59.61l-47.08,47.08c-53.24-30.32-122.18-22.78-167.6,22.63-6.5,6.5-12.22,13.49-17.17,20.85,9.71,12.91,22.95,25.27,40.79,31.41,32.64,11.24,46.79-10,86.02-3.33,43.52,7.4,49.63,37.52,96.48,46.57,11.43,2.21,22.21,2.56,31.97,1.91-.2-23.43-6.27-46.82-18.2-67.77l47.08-47.08-52.28-52.28Z"/><rect class="cls-1" x="280.75" y="2.92" width="54.89" height="112.59" transform="translate(48.4 235.27) rotate(-45)"/></g></svg>